<?xml version="1.0" standalone="no"?>
<!DOCTYPE svg PUBLIC "-//W3C//DTD SVG 20010904//EN"
 "http://www.w3.org/TR/2001/REC-SVG-20010904/DTD/svg10.dtd">
<svg version="1.0" xmlns="http://www.w3.org/2000/svg"
 width="400.000000pt" height="400.000000pt" viewBox="0 0 400.000000 400.000000"
 preserveAspectRatio="xMidYMid meet">
<metadata>
Created by potrace 1.14, written by Peter Selinger 2001-2017
</metadata>
<g transform="translate(0.000000,400.000000) scale(0.100000,-0.100000)"
fill="#000000" stroke="none">
<path d="M1760 3990 c-25 -4 -63 -11 -85 -14 -105 -17 -332 -80 -420 -117
-262 -110 -472 -249 -660 -437 -55 -55 -111 -113 -125 -129 -36 -41 -110 -141
-110 -148 0 -3 -15 -26 -34 -52 -18 -27 -54 -86 -79 -133 -40 -76 -63 -127
-127 -290 -22 -56 -77 -277 -86 -345 -3 -27 -10 -72 -14 -100 -5 -27 -8 -126
-8 -220 0 -150 6 -211 32 -370 29 -173 118 -429 200 -573 20 -35 36 -66 36
-68 0 -2 24 -41 53 -86 146 -225 347 -432 558 -574 203 -135 437 -238 669
-293 134 -32 189 -36 450 -36 219 0 269 3 360 20 14 3 34 7 45 9 122 24 297
86 445 158 114 55 313 177 367 224 11 10 40 34 63 53 155 127 313 316 437 521
73 119 160 332 203 495 26 97 35 145 59 325 9 67 7 369 -3 430 -3 19 -8 55
-11 80 -14 104 -64 302 -94 375 -5 11 -21 52 -37 90 -44 112 -165 336 -185
343 -5 2 -9 8 -9 13 0 6 -4 15 -10 22 -5 7 -40 50 -76 97 -226 285 -550 515
-894 632 -90 31 -245 71 -320 83 -25 4 -54 10 -65 12 -34 9 -477 11 -525 3z"/>
</g>
</svg>
